<svg width="50" height="50" viewBox="0 0 50 50" fill="none" xmlns="http://www.w3.org/2000/svg">
<path d="M25 2.5C20.5499 2.5 16.1998 3.8196 12.4997 6.29193C8.79956 8.76427 5.91568 12.2783 4.21271 16.3896C2.50973 20.501 2.06416 25.025 2.93233 29.3895C3.80049 33.7541 5.94341 37.7632 9.09009 40.9099C12.2368 44.0566 16.2459 46.1995 20.6105 47.0677C24.975 47.9358 29.499 47.4903 33.6104 45.7873C37.7217 44.0843 41.2357 41.2004 43.7081 37.5003C46.1804 33.8002 47.5 29.4501 47.5 25C47.5 19.0326 45.1295 13.3097 40.9099 9.0901C36.6903 4.87053 30.9674 2.5 25 2.5ZM37.5 27.5H12.5V22.5H37.5V27.5Z" fill="#FF0000"/>
</svg>
